<svg width="197" height="201" viewBox="0 0 197 201" fill="none" xmlns="http://www.w3.org/2000/svg">
    <path
        d="M11.8532 75.6078C11.6383 76.3471 11.3192 76.9822 10.899 77.5098C10.4788 78.0374 9.96066 78.4419 9.34456 78.7231C8.72847 79.0042 8.02706 79.1591 7.24036 79.1843C6.45365 79.2128 5.5848 79.0864 4.62748 78.8115C3.6828 78.5366 2.88346 78.1796 2.22945 77.731C1.57544 77.2855 1.06044 76.78 0.690787 76.2113C0.32113 75.6457 0.0999676 75.0265 0.0273 74.3535C-0.0453677 73.6805 0.0272999 72.976 0.242144 72.2367C0.456987 71.4974 0.772934 70.8623 1.1963 70.3347C1.61651 69.807 2.13782 69.3995 2.75392 69.112C3.37001 68.8276 4.07457 68.6728 4.8676 68.6538C5.65747 68.6349 6.52632 68.7613 7.46784 69.033C8.422 69.311 9.2245 69.668 9.87535 70.1072C10.5262 70.5464 11.038 71.0519 11.4045 71.6237C11.7742 72.1956 11.9954 72.818 12.0649 73.491C12.1375 74.1639 12.0649 74.8685 11.85 75.6078H11.8532ZM9.97013 75.0612C10.2039 74.2587 10.1218 73.5384 9.7237 72.9065C9.3256 72.2746 8.64316 71.8165 7.67952 71.5384L5.94182 71.0361C4.97818 70.7549 4.15672 70.777 3.48375 71.0993C2.81079 71.4215 2.35583 71.9839 2.12203 72.7864C1.88822 73.5889 1.97037 74.3093 2.36846 74.9412C2.76656 75.5731 3.449 76.0312 4.41264 76.3092L6.15034 76.8116C7.11398 77.0928 7.93544 77.0707 8.60841 76.7484C9.28453 76.4261 9.73633 75.8637 9.97013 75.0612Z"
        fill="#C92B71" />
    <path
        d="M19.6727 56.9859C19.1799 57.8611 18.6048 58.5151 17.9508 58.9448C17.2968 59.3776 16.5923 59.6683 15.8371 59.8199L15.3127 57.8137C15.9161 57.6936 16.4438 57.4756 16.9019 57.1628C17.3568 56.85 17.736 56.4298 18.0298 55.9054C18.3647 55.3114 18.4879 54.7932 18.4026 54.3477C18.3173 53.9022 18.0582 53.5579 17.6222 53.3114C17.2842 53.1219 16.9556 53.0618 16.6333 53.1377C16.3111 53.2135 15.9509 53.4915 15.5528 53.9686L14.864 54.8501C13.3949 56.7015 11.8341 57.1597 10.1785 56.2245C9.72042 55.9654 9.35392 55.6494 9.0822 55.2703C8.80733 54.8912 8.6304 54.4678 8.54825 53.997C8.46611 53.5263 8.48191 53.0271 8.59565 52.4963C8.70939 51.9655 8.92739 51.4126 9.25282 50.8376C9.68566 50.0698 10.1912 49.4695 10.7694 49.0398C11.3475 48.6101 11.9984 48.329 12.7251 48.2026L13.2274 50.2152C12.7756 50.2941 12.3523 50.4584 11.9573 50.7112C11.5624 50.9608 11.2085 51.3589 10.9021 51.9055C10.5893 52.4584 10.4597 52.9323 10.5103 53.3272C10.5608 53.7222 10.7757 54.0255 11.1517 54.2372C11.5371 54.4552 11.8846 54.5025 12.1943 54.3825C12.5039 54.2624 12.842 53.9781 13.2085 53.5326L13.9193 52.6827C14.6871 51.757 15.4422 51.182 16.1942 50.9576C16.943 50.7333 17.7423 50.8597 18.589 51.3368C19.0756 51.6116 19.4674 51.9465 19.7675 52.3383C20.0645 52.7301 20.2667 53.1724 20.371 53.659C20.4752 54.1455 20.4721 54.67 20.3615 55.2292C20.2509 55.7885 20.0234 56.373 19.6759 56.9859H19.6727Z"
        fill="#C92B71" />
    <path
        d="M24.3647 49.0672L15.1138 41.9237L19.8214 35.8259L21.3727 37.0234L18.0173 41.3708L20.2574 43.099L23.2241 39.2539L24.7754 40.4514L21.8087 44.2965L24.1688 46.1195L27.5241 41.772L29.0754 42.9695L24.3678 49.0672H24.3647Z"
        fill="#C92B71" />
    <path
        d="M25.5734 29.6981L30.5401 34.8891C31.172 35.5495 31.7754 35.9254 32.3441 36.0139C32.916 36.1024 33.5037 35.8559 34.1071 35.2777C34.7106 34.6996 34.9823 34.1214 34.9223 33.5495C34.8591 32.9745 34.5115 32.3584 33.8796 31.6949L28.913 26.5039L30.4864 25L35.254 29.9856C35.848 30.6081 36.303 31.1989 36.6189 31.7613C36.9348 32.3236 37.1055 32.8797 37.1339 33.4263C37.1623 33.9729 37.036 34.5131 36.7548 35.0534C36.4736 35.5905 36.0407 36.1434 35.4499 36.7058C34.8528 37.2777 34.2841 37.6853 33.7406 37.9348C33.1972 38.1844 32.6538 38.2824 32.1103 38.2287C31.5669 38.1781 31.0235 37.9791 30.4769 37.6347C29.9303 37.2903 29.3616 36.8101 28.7676 36.1877L24 31.202L25.5734 29.6981Z"
        fill="#C92B71" />
    <path
        d="M51.8296 14.2342L51.7727 14.2658L51.9054 16.329L52.0096 21.3557L47.7444 18.6954L46.0383 17.5264L45.9814 17.558L50.1266 24.8501L48.3068 25.8832L42.5312 15.7224L44.7018 14.4902L50.1298 17.9719L50.1866 17.9403L49.9402 11.5108L52.0223 10.326L57.7978 20.4868L55.9779 21.52L51.8327 14.2279L51.8296 14.2342Z"
        fill="#C92B71" />
    <path
        d="M60.6448 6.65811L63.0775 13.4162C63.3872 14.2787 63.7853 14.8632 64.2718 15.176C64.7584 15.4888 65.3934 15.5015 66.1833 15.2171C66.97 14.9327 67.4534 14.5157 67.6303 13.966C67.8073 13.4162 67.7378 12.7116 67.4281 11.8491L64.9953 5.09101L67.0427 4.35486L69.3775 10.8476C69.6682 11.6564 69.8451 12.3831 69.902 13.0244C69.962 13.669 69.8925 14.244 69.6966 14.7527C69.5007 15.2613 69.1658 15.7068 68.6888 16.086C68.2148 16.4651 67.5924 16.7905 66.8278 17.0685C66.0506 17.3497 65.3618 17.4919 64.7679 17.4982C64.1707 17.5046 63.6336 17.375 63.1597 17.1065C62.6826 16.8379 62.2656 16.4367 61.9085 15.9027C61.5484 15.3688 61.2261 14.6958 60.9354 13.887L58.6006 7.39426L60.6479 6.65811H60.6448Z"
        fill="#C92B71" />
    <path
        d="M78.2496 7.47704L76.6225 5.30648L76.5719 5.31596L78.0979 13.6001L76.038 13.9792L73.918 2.48508L76.3065 2.04592L80.853 7.30327L82.4801 9.47382L82.5307 9.46434L81.0047 1.18022L83.0646 0.801086L85.1846 12.2952L82.7961 12.7344L78.2496 7.47704Z"
        fill="#C92B71" />
    <path
        d="M90.23 0.0931426L94.4826 0.00151814C95.2409 -0.0142792 95.9328 0.0931426 96.5584 0.326943C97.184 0.560744 97.7211 0.914604 98.1729 1.38852C98.6247 1.8656 98.9785 2.4659 99.2313 3.19258C99.4872 3.91926 99.6262 4.76599 99.6452 5.73911C99.6641 6.71222 99.563 7.56528 99.3387 8.29827C99.1144 9.03443 98.7858 9.65053 98.3561 10.1434C97.9264 10.6394 97.402 11.0154 96.789 11.2745C96.1761 11.5336 95.4873 11.6694 94.7291 11.6852L90.4764 11.7768L90.23 0.0899832V0.0931426ZM94.688 9.72951C95.5126 9.71056 96.1635 9.45464 96.6405 8.9586C97.1145 8.46257 97.3419 7.71377 97.323 6.70906L97.2851 4.86709C97.263 3.86238 97.0039 3.12307 96.5078 2.64599C96.0118 2.17207 95.3515 1.94143 94.5269 1.96039L92.4858 2.00462L92.6501 9.77374L94.6912 9.72951H94.688Z"
        fill="#C92B71" />
    <path
        d="M109.092 12.7152C108.331 12.6078 107.655 12.3866 107.073 12.0454C106.489 11.7042 106.015 11.2492 105.648 10.6805C105.282 10.1118 105.029 9.43887 104.89 8.6648C104.751 7.89073 104.748 7.0124 104.887 6.02664C105.023 5.05353 105.263 4.20995 105.61 3.49907C105.958 2.78819 106.384 2.20685 106.893 1.75821C107.402 1.30956 107.98 1.0031 108.637 0.835643C109.291 0.668192 109.999 0.636597 110.763 0.744019C111.528 0.851441 112.201 1.0726 112.782 1.41383C113.367 1.75505 113.844 2.21001 114.217 2.77871C114.59 3.34742 114.839 4.02354 114.975 4.80393C115.108 5.58432 115.108 6.45949 114.975 7.43261C114.839 8.4152 114.599 9.26194 114.258 9.96966C113.917 10.6774 113.49 11.2556 112.978 11.701C112.466 12.1497 111.882 12.4562 111.228 12.6236C110.574 12.7911 109.866 12.8227 109.102 12.7152H109.092ZM109.361 10.7753C110.188 10.8922 110.89 10.7058 111.459 10.2224C112.027 9.73901 112.381 8.9997 112.52 8.00447L112.77 6.21305C112.909 5.21782 112.77 4.409 112.356 3.78974C111.942 3.16733 111.32 2.80083 110.489 2.68393C109.661 2.56703 108.959 2.75344 108.391 3.23684C107.822 3.72023 107.468 4.45955 107.329 5.45478L107.08 7.2462C106.941 8.24143 107.08 9.05025 107.493 9.66951C107.907 10.2919 108.53 10.6584 109.361 10.7753Z"
        fill="#C92B71" />
    <path
        d="M125.338 16.2915L129.53 5.38184L136.548 8.08002L135.846 9.90935L130.892 8.00419L129.878 10.6455L134.191 12.3042L133.489 14.1336L129.177 12.4748L127.404 17.0845L125.341 16.2915H125.338Z"
        fill="#C92B71" />
    <path
        d="M136.248 20.8697L137.085 19.3058L138.444 20.0325L142.289 12.8605L140.93 12.1338L141.768 10.5699L146.447 13.0785L145.61 14.6424L144.238 13.9063L140.393 21.0783L141.764 21.8144L140.927 23.3784L136.248 20.8697Z"
        fill="#C92B71" />
    <path
        d="M151.378 22.9898L151.833 20.3169L151.792 20.2885L146.835 27.0971L145.141 25.865L152.022 16.4182L153.984 17.8462L153.299 24.7623L152.844 27.4352L152.885 27.4636L157.842 20.655L159.536 21.8872L152.654 31.334L150.692 29.9059L151.378 22.9898Z"
        fill="#C92B71" />
    <path
        d="M161.77 39.9558L163.223 37.1912L160.297 34.2435L157.533 35.6905L155.953 34.0981L167.008 28.6417L168.942 30.5911L163.387 41.5829L161.77 39.9558ZM166.537 31.0208L166.477 30.9608L162.016 33.2893L164.187 35.4756L166.534 31.0208H166.537Z"
        fill="#C92B71" />
    <path
        d="M172.948 44.1235L174.218 41.7286L174.189 41.6875L167.346 46.5973L166.126 44.8975L175.624 38.0826L177.039 40.0541L174.218 46.4046L172.948 48.7995L172.976 48.8406L179.82 43.9307L181.039 45.6305L171.542 52.4455L170.126 50.474L172.948 44.1235Z"
        fill="#C92B71" />
    <path
        d="M176.11 61.1788C175.766 60.49 175.567 59.8139 175.513 59.1472C175.46 58.4806 175.558 57.8392 175.81 57.22C176.06 56.6007 176.467 56.0194 177.023 55.476C177.583 54.9325 178.3 54.4428 179.178 54.0005C180.057 53.5613 180.891 53.2738 181.677 53.1411C182.467 53.0084 183.191 53.021 183.854 53.1822C184.515 53.3433 185.105 53.6403 185.624 54.0763C186.142 54.5123 186.571 55.0715 186.919 55.7603C187.39 56.6987 187.579 57.577 187.491 58.3953C187.402 59.2136 187.045 60.0098 186.423 60.7839L184.676 59.5422C185.071 59.1567 185.323 58.7239 185.437 58.2405C185.551 57.7571 185.459 57.2231 185.165 56.6355C184.796 55.8962 184.252 55.4349 183.535 55.2516C182.818 55.0684 182.012 55.2011 181.112 55.6529L179.466 56.4775C178.559 56.9325 177.971 57.498 177.706 58.1773C177.441 58.8534 177.491 59.5611 177.861 60.3005C178.155 60.8881 178.556 61.2894 179.065 61.5042C179.57 61.7191 180.101 61.7917 180.657 61.7254L180.518 63.8011C179.548 63.8106 178.692 63.6116 177.94 63.2008C177.191 62.7901 176.581 62.114 176.11 61.1788Z"
        fill="#C92B71" />
    <path
        d="M179.861 69.1376L190.967 65.4884L193.371 72.8057L191.51 73.4187L189.795 68.1992L187.106 69.0839L188.623 73.6967L186.762 74.3096L185.245 69.6968L182.414 70.6257L184.13 75.8451L182.269 76.4581L179.864 69.1407L179.861 69.1376Z"
        fill="#C92B71" />
    <path
        d="M183.311 80.8564L185.055 80.5215L185.345 82.0349L193.336 80.4994L193.045 78.986L194.789 78.6511L195.79 83.8642L194.046 84.1991L193.753 82.6699L185.762 84.2054L186.056 85.7346L184.312 86.0695L183.311 80.8564Z"
        fill="#C92B71" />
    <path
        d="M185.147 93.1267L185.021 90.9214L196.688 90.2484L196.992 95.5152C197.023 96.0492 196.966 96.5326 196.824 96.9686C196.682 97.4014 196.461 97.7743 196.161 98.0902C195.861 98.403 195.491 98.6557 195.055 98.8422C194.619 99.0286 194.126 99.1391 193.58 99.1707C192.777 99.2181 192.076 99.076 191.475 98.7474C190.875 98.4188 190.43 97.8975 190.145 97.1897L185.536 99.8532L185.393 97.3951L189.766 94.9623L189.646 92.8739L185.15 93.133L185.147 93.1267ZM191.665 95.6005C191.69 96.0239 191.823 96.3525 192.066 96.5831C192.309 96.8138 192.641 96.918 193.065 96.8959L193.832 96.8517C194.256 96.8264 194.572 96.6874 194.78 96.4283C194.989 96.1692 195.08 95.828 195.058 95.4047L194.894 92.5611L191.501 92.757L191.665 95.5974V95.6005Z"
        fill="#C92B71" />
    <path
        d="M184.783 108.99C184.859 108.222 185.055 107.543 185.371 106.943C185.687 106.345 186.123 105.853 186.676 105.464C187.228 105.075 187.892 104.794 188.66 104.624C189.427 104.453 190.306 104.415 191.295 104.51C192.271 104.605 193.124 104.813 193.851 105.129C194.577 105.448 195.174 105.849 195.642 106.339C196.11 106.829 196.441 107.394 196.637 108.042C196.833 108.69 196.893 109.397 196.817 110.162C196.742 110.93 196.546 111.609 196.23 112.209C195.914 112.807 195.478 113.303 194.925 113.697C194.372 114.092 193.705 114.37 192.934 114.538C192.16 114.702 191.285 114.74 190.309 114.642C189.32 114.544 188.464 114.342 187.743 114.029C187.023 113.716 186.429 113.315 185.961 112.819C185.494 112.326 185.162 111.754 184.966 111.107C184.77 110.459 184.71 109.751 184.786 108.987L184.783 108.99ZM186.732 109.179C186.65 110.014 186.865 110.702 187.371 111.252C187.879 111.802 188.631 112.124 189.633 112.222L191.434 112.399C192.435 112.497 193.235 112.326 193.838 111.884C194.441 111.445 194.786 110.807 194.865 109.972C194.947 109.138 194.732 108.446 194.227 107.9C193.718 107.35 192.966 107.028 191.964 106.93L190.164 106.753C189.162 106.655 188.363 106.826 187.759 107.268C187.156 107.707 186.811 108.345 186.732 109.179Z"
        fill="#C92B71" />
    <path
        d="M186.487 130.497L189.179 130.165L189.194 130.117L181.248 127.321L181.944 125.347L192.967 129.23L192.161 131.52L185.34 132.847L182.648 133.179L182.632 133.226L190.578 136.022L189.883 137.997L178.86 134.114L179.666 131.824L186.487 130.497Z"
        fill="#C92B71" />
    <path
        d="M173.194 145.308L176.259 145.915L178.249 142.269L176.076 140.032L177.15 138.064L185.532 147.103L184.214 149.514L172.095 147.324L173.194 145.312V145.308ZM183.118 147.331L183.159 147.258L179.655 143.647L178.18 146.351L183.121 147.331H183.118Z"
        fill="#C92B71" />
    <path
        d="M165.599 156.278L174.322 164.06L170.822 167.984C170.465 168.385 170.079 168.685 169.665 168.891C169.251 169.096 168.825 169.207 168.386 169.219C167.947 169.232 167.511 169.15 167.071 168.966C166.635 168.786 166.215 168.518 165.817 168.161C165.409 167.797 165.094 167.409 164.866 166.998C164.642 166.587 164.509 166.164 164.474 165.728C164.436 165.292 164.496 164.856 164.654 164.42C164.812 163.984 165.068 163.567 165.425 163.166L167.454 160.891L164.13 157.927L165.602 156.278H165.599ZM168.875 162.164L166.98 164.287C166.699 164.603 166.56 164.929 166.566 165.267C166.572 165.602 166.736 165.911 167.052 166.192L167.627 166.704C167.943 166.985 168.269 167.109 168.597 167.077C168.926 167.042 169.232 166.865 169.517 166.549L171.412 164.426L168.875 162.164Z"
        fill="#C92B71" />
    <path
        d="M151.698 169.918L154.339 171.589L157.511 168.907L156.289 166.035L158.001 164.584L162.557 176.041L160.459 177.813L149.944 171.396L151.695 169.914L151.698 169.918ZM160.222 175.384L160.285 175.33L158.32 170.698L155.966 172.689L160.219 175.387L160.222 175.384Z"
        fill="#C92B71" />
    <path
        d="M146.345 173.832L152.557 183.734L150.683 184.91L145.514 176.666L141.612 179.115L140.573 177.456L146.345 173.836V173.832Z"
        fill="#C92B71" />
    <path
        d="M131.838 190.837L131.901 190.812L132.002 188.749L132.463 183.741L136.403 186.862L137.967 188.215L138.03 188.189L134.729 180.477L136.653 179.653L141.253 190.398L138.959 191.38L133.958 187.311L133.898 187.336L133.42 193.753L131.218 194.695L126.618 183.949L128.542 183.125L131.844 190.837H131.838Z"
        fill="#C92B71" />
    <path
        d="M114.52 187.187L116.125 189.869L120.166 188.905L120.371 185.793L122.554 185.272L121.455 197.55L118.782 198.188L112.292 187.72L114.523 187.19L114.52 187.187ZM119.664 195.91L119.746 195.891L120.081 190.87L117.082 191.585L119.664 195.91Z"
        fill="#C92B71" />
    <path
        d="M101.497 200.526L97.244 200.596C96.4858 200.609 95.7939 200.498 95.1714 200.261C94.549 200.024 94.0119 199.667 93.5633 199.19C93.1146 198.713 92.7639 198.109 92.5112 197.383C92.2584 196.656 92.1257 195.806 92.1099 194.836C92.0941 193.866 92.2015 193.013 92.429 192.277C92.6565 191.541 92.9882 190.928 93.4211 190.435C93.8539 189.942 94.3784 189.569 94.9945 189.313C95.6106 189.057 96.2962 188.925 97.0576 188.912L101.31 188.843L101.5 200.53L101.497 200.526ZM97.0861 190.868C96.2615 190.88 95.6074 191.133 95.1304 191.629C94.6533 192.122 94.4226 192.871 94.4384 193.876L94.4669 195.718C94.4827 196.722 94.7386 197.462 95.2315 197.942C95.7243 198.419 96.3847 198.653 97.2093 198.637L99.2535 198.605L99.1271 190.836L97.0829 190.868H97.0861Z"
        fill="#C92B71" />
    <path
        d="M80.5148 187.471L80.9982 190.558L85.1055 191.177L86.461 188.369L88.6789 188.704L83.0614 199.676L80.3474 199.266L78.2495 187.13L80.518 187.471H80.5148ZM82.0188 197.487L82.1009 197.5L84.2904 192.969L81.2447 192.511L82.0188 197.487Z"
        fill="#C92B71" />
    <path
        d="M64.2997 182.553C65.2349 182.922 65.9584 183.403 66.4765 183.994C66.9947 184.584 67.377 185.241 67.6297 185.968L65.7119 186.758C65.5097 186.177 65.2222 185.684 64.8494 185.273C64.4766 184.862 64.0122 184.546 63.4498 184.325C62.8179 184.076 62.2839 184.022 61.8542 184.167C61.4245 184.313 61.1181 184.616 60.9348 185.08C60.7927 185.441 60.78 185.775 60.8969 186.085C61.0138 186.395 61.3392 186.714 61.8669 187.042L62.8337 187.605C64.8652 188.809 65.5319 190.293 64.8305 192.06C64.6377 192.549 64.3723 192.954 64.0311 193.276C63.693 193.598 63.2981 193.832 62.8431 193.977C62.3882 194.123 61.8921 194.173 61.3487 194.132C60.8053 194.091 60.2303 193.949 59.6173 193.706C58.799 193.38 58.1355 192.96 57.63 192.448C57.1245 191.936 56.7612 191.327 56.5337 190.625L58.461 189.854C58.6 190.29 58.8211 190.688 59.1245 191.045C59.4278 191.402 59.8701 191.696 60.4483 191.927C61.0391 192.161 61.5288 192.227 61.9111 192.123C62.2934 192.019 62.5651 191.766 62.7262 191.365C62.8905 190.954 62.8905 190.603 62.7294 190.312C62.5683 190.022 62.2428 189.725 61.75 189.425L60.8116 188.837C59.7911 188.202 59.1181 187.532 58.7927 186.818C58.4673 186.107 58.4862 185.298 58.8433 184.395C59.0486 183.877 59.3267 183.441 59.6742 183.093C60.0217 182.746 60.4325 182.486 60.9001 182.316C61.3708 182.148 61.889 182.079 62.4577 182.114C63.0264 182.148 63.6393 182.294 64.2933 182.553H64.2997Z"
        fill="#C92B71" />
    <path
        d="M48.111 188.047L51.7444 181.851C52.2089 181.061 52.4016 180.379 52.3321 179.807C52.2594 179.235 51.8645 178.736 51.141 178.313C50.4174 177.889 49.7887 177.785 49.2548 178.003C48.7208 178.221 48.2216 178.723 47.7572 179.513L44.1238 185.709L42.2471 184.609L45.7351 178.657C46.1711 177.915 46.6166 177.317 47.0716 176.859C47.5265 176.401 48.0131 176.085 48.5312 175.908C49.0494 175.731 49.6055 175.706 50.1994 175.829C50.7934 175.953 51.4443 176.218 52.1457 176.632C52.8597 177.049 53.4095 177.485 53.7949 177.94C54.1835 178.395 54.4268 178.888 54.5248 179.425C54.6227 179.962 54.5816 180.54 54.4015 181.156C54.2214 181.775 53.9118 182.455 53.479 183.197L49.9909 189.15L48.1142 188.05L48.111 188.047Z"
        fill="#C92B71" />
    <path
        d="M38.538 167.151L37.3816 170.054L40.6011 172.677L43.1982 170.949L44.939 172.367L34.5191 178.955L32.3896 177.22L36.7592 165.704L38.538 167.154V167.151ZM34.7371 176.538L34.8035 176.591L38.9929 173.808L36.6044 171.862L34.7371 176.541V176.538Z"
        fill="#C92B71" />
    <path
        d="M17.0909 155.725L17.132 155.779L19.1604 155.387L24.1334 154.651L22.0323 159.22L21.0877 161.058L21.1287 161.112L27.8426 156.082L29.0969 157.757L19.7449 164.768L18.2473 162.771L21.0181 156.948L20.9771 156.894L14.6297 157.946L13.1953 156.032L22.5473 149.021L23.8016 150.695L17.0878 155.725H17.0909Z"
        fill="#C92B71" />
    <path
        d="M5.88448 145.47C6.00138 145.697 6.07405 145.921 6.09616 146.142C6.12144 146.36 6.14039 146.582 6.15303 146.8C6.17199 147.078 6.1941 147.321 6.2257 147.526C6.25413 147.732 6.31416 147.918 6.39947 148.086C6.48478 148.253 6.5922 148.389 6.71858 148.487C6.84495 148.585 7.01241 148.68 7.22409 148.774L6.70278 149.924C6.3584 149.89 6.02981 149.779 5.71703 149.602C5.40424 149.422 5.15464 149.144 4.95875 148.768C4.84185 148.54 4.77235 148.316 4.74707 148.095C4.72179 147.877 4.70284 147.656 4.6902 147.438C4.67124 147.16 4.64913 146.917 4.61753 146.711C4.5891 146.506 4.52907 146.319 4.44376 146.152C4.35846 145.984 4.25103 145.849 4.12466 145.751C3.99828 145.653 3.83082 145.558 3.61914 145.463L4.14045 144.313C4.48483 144.351 4.81342 144.458 5.12621 144.635C5.43899 144.815 5.69175 145.094 5.88448 145.47ZM16.5256 138.035L14.3013 140.231L16.197 143.925L19.268 143.384L20.2916 145.381L8.10242 147.229L6.84811 144.787L15.4735 135.994L16.5192 138.035H16.5256ZM9.27458 145.106L9.3125 145.182L14.2697 144.313L12.8637 141.571L9.27458 145.106Z"
        fill="#C92B71" />
    <path
        d="M12.7857 127.982C13.0258 128.715 13.1238 129.416 13.0764 130.089C13.029 130.762 12.83 131.391 12.4793 131.969C12.1286 132.547 11.6388 133.072 11.0038 133.54C10.3719 134.007 9.58203 134.396 8.63735 134.705C7.7053 135.012 6.84277 135.167 6.04974 135.17C5.25672 135.17 4.549 135.043 3.92342 134.788C3.29785 134.528 2.7639 134.143 2.32474 133.631C1.88557 133.119 1.54435 132.494 1.30423 131.764C1.06411 131.031 0.966165 130.33 1.01356 129.657C1.06095 128.984 1.26 128.352 1.60754 127.767C1.95508 127.183 2.45111 126.658 3.08933 126.194C3.7307 125.729 4.5174 125.344 5.44945 125.037C6.39413 124.728 7.25666 124.567 8.04337 124.56C8.83007 124.554 9.53464 124.684 10.1634 124.946C10.7921 125.208 11.3229 125.597 11.7652 126.112C12.2044 126.627 12.5456 127.249 12.7857 127.979V127.982ZM10.9248 128.595C10.6626 127.799 10.1886 127.252 9.50304 126.955C8.81744 126.658 7.99598 126.668 7.04182 126.98L5.32307 127.546C4.36891 127.862 3.70542 128.342 3.32945 128.987C2.95347 129.634 2.89976 130.355 3.16199 131.148C3.42423 131.944 3.89815 132.491 4.58375 132.788C5.26936 133.085 6.09082 133.075 7.04498 132.762L8.76373 132.197C9.71788 131.881 10.3814 131.401 10.7573 130.756C11.1333 130.108 11.187 129.388 10.928 128.595H10.9248Z"
        fill="#C92B71" />
    <path
        d="M5.50532 102.993C5.51796 103.429 5.48004 103.802 5.38842 104.112C5.29679 104.421 5.16094 104.677 4.98401 104.876C4.80708 105.078 4.59223 105.224 4.34264 105.312C4.09304 105.401 3.81816 105.454 3.51802 105.461L2.96511 105.476C2.66496 105.486 2.38693 105.451 2.13417 105.375C1.88141 105.299 1.66025 105.167 1.47068 104.977C1.28111 104.788 1.13262 104.541 1.02204 104.238C0.911457 103.935 0.851427 103.565 0.838789 103.129C0.826151 102.693 0.864065 102.32 0.955689 102.01C1.04731 101.701 1.18317 101.448 1.3601 101.252C1.53703 101.056 1.75187 100.911 2.00147 100.816C2.25107 100.718 2.52594 100.668 2.82609 100.658L3.379 100.642C3.67915 100.633 3.95718 100.671 4.20994 100.753C4.46269 100.835 4.68386 100.968 4.87343 101.151C5.06299 101.334 5.21149 101.581 5.32207 101.884C5.43265 102.187 5.49268 102.557 5.50532 102.993Z"
        fill="#C92B71" />
</svg>
