<svg width="22" height="22" viewBox="0 0 22 22" fill="none" xmlns="http://www.w3.org/2000/svg">
    <path
        d="M18.7946 3.19708C16.7265 1.13645 13.9763 0.00112187 11.0458 0C5.00811 0 0.0942849 4.89011 0.0917806 10.9008C0.0910294 12.8222 0.595385 14.6977 1.55401 16.3509L0 22L5.80683 20.4841C7.40679 21.3526 9.2081 21.8103 11.0415 21.811H11.046C11.0456 21.811 11.0463 21.811 11.046 21.811C17.0831 21.811 21.9975 16.9204 21.9999 10.9096C22.001 7.99669 20.8627 5.25758 18.7946 3.19708ZM11.046 19.9699H11.0423C9.40856 19.9692 7.80622 19.5324 6.40835 18.7068L6.07579 18.5105L2.62995 19.4101L3.54976 16.0666L3.33327 15.7238C2.42198 14.2812 1.94054 12.6137 1.94129 10.9016C1.94329 5.90565 6.02746 1.84111 11.0496 1.84111C13.4813 1.84211 15.7673 2.78585 17.4862 4.49845C19.2051 6.21105 20.1514 8.48757 20.1504 10.9087C20.1484 15.905 16.0641 19.9699 11.046 19.9699ZM16.04 13.1836C15.7662 13.0472 14.4205 12.3883 14.1697 12.2974C13.9188 12.2066 13.7364 12.1611 13.5538 12.4338C13.3714 12.7066 12.8469 13.32 12.6871 13.5018C12.5276 13.6836 12.3678 13.7064 12.0942 13.57C11.8204 13.4336 10.9387 13.1461 9.89313 12.218C9.0795 11.4958 8.5302 10.6037 8.37043 10.3309C8.21078 10.0582 8.35352 9.91085 8.49051 9.77498C8.61359 9.65295 8.76422 9.45687 8.90107 9.29781C9.03793 9.13875 9.08363 9.02507 9.17479 8.84333C9.26607 8.66159 9.22036 8.50241 9.15187 8.36616C9.08351 8.22979 8.53608 6.88903 8.30795 6.34368C8.08582 5.81253 7.86019 5.88433 7.69215 5.87611C7.53263 5.86825 7.35007 5.86651 7.16764 5.86651C6.98521 5.86651 6.68858 5.93469 6.43778 6.20743C6.18698 6.48017 5.47991 7.13921 5.47991 8.47984C5.47991 9.8206 6.46069 11.1159 6.59742 11.2976C6.73428 11.4795 8.52744 14.2308 11.2731 15.4106C11.9261 15.6913 12.4359 15.859 12.8335 15.9845C13.4891 16.1918 14.0857 16.1627 14.5574 16.0925C15.0833 16.0142 16.1768 15.4334 16.4049 14.7971C16.6329 14.1609 16.6329 13.6155 16.5646 13.5018C16.4961 13.3883 16.3136 13.3201 16.04 13.1836Z"
        fill="white" />
</svg>